<svg width="434" height="68" viewBox="0 0 434 68" fill="none" xmlns="http://www.w3.org/2000/svg">
<path d="M68 9H9V68H0V0H68V9Z" fill="white"/>
<path d="M68 13V22H22V68H13V13H68Z" fill="white" fill-opacity="0.61"/>
<path d="M68 26V35H35V68H26V26H68Z" fill="white" fill-opacity="0.23"/>
<path d="M39 39H68V53.5C68 61.5081 61.5081 68 53.5 68H39V39Z" fill="white"/>
<path d="M131.94 44.688C131.94 46.6932 132.431 48.2079 133.412 49.2319C134.436 50.2559 135.866 50.7681 137.7 50.7681C139.364 50.7681 140.814 50.3837 142.052 49.6157C143.332 48.8477 144.335 47.7818 145.061 46.4165C145.829 45.0085 146.212 43.4295 146.212 41.6802V24.0806H154.34V56.7202H146.468V50.6362C145.43 52.4998 144.024 54.0383 142.244 55.2485C140.154 56.6564 137.679 57.3598 134.82 57.3599C132.559 57.3599 130.597 56.8911 128.933 55.9526C127.311 54.9713 126.052 53.6479 125.156 51.9839C124.303 50.3199 123.876 48.4426 123.876 46.3521V24.0806H131.94V44.688Z" fill="white"/>
<path d="M170.897 24.0806H179.793V30.4165H170.897V46.1606C170.898 47.7389 171.324 48.9122 172.177 49.6802C173.03 50.4481 174.374 50.8325 176.209 50.8325C176.934 50.8325 177.574 50.7899 178.129 50.7046C178.726 50.5766 179.281 50.427 179.793 50.2563V56.5278C179.281 56.7838 178.556 56.976 177.617 57.104C176.679 57.2747 175.633 57.3599 174.481 57.3599C170.471 57.3599 167.505 56.4218 165.585 54.5444C163.708 52.6244 162.77 49.7656 162.77 45.9683V30.4165H156.497V24.0806H162.77V16.6558L170.897 13.6479V24.0806Z" fill="white"/>
<path d="M190.32 44.688C190.32 46.6932 190.811 48.2079 191.792 49.2319C192.816 50.2559 194.245 50.768 196.08 50.7681C197.744 50.7681 199.195 50.3837 200.433 49.6157C201.712 48.8478 202.715 47.7816 203.44 46.4165C204.208 45.0085 204.592 43.4295 204.592 41.6802V24.0806H212.721V56.7202H204.849V50.6353C203.811 52.4993 202.404 54.038 200.624 55.2485C198.533 56.6564 196.059 57.3599 193.2 57.3599C190.939 57.3599 188.976 56.8912 187.312 55.9526C185.691 54.9713 184.432 53.6479 183.536 51.9839C182.683 50.32 182.256 48.4426 182.256 46.3521V24.0806H190.32V44.688Z" fill="white"/>
<path fill-rule="evenodd" clip-rule="evenodd" d="M254.923 23.4399C258.165 23.4399 260.982 24.1226 263.371 25.4878C265.76 26.8105 267.617 28.6886 268.939 31.1206C270.262 33.5525 270.923 36.3898 270.923 39.6323C270.923 40.2296 270.902 40.7844 270.859 41.2964C270.817 41.8083 270.752 42.3206 270.667 42.8325H246.035C246.322 45.2007 247.066 47.0989 248.268 48.5278C249.889 50.3625 252.171 51.2798 255.115 51.2798C256.822 51.2798 258.316 50.9598 259.596 50.3198C260.875 49.6799 261.814 48.6988 262.411 47.3765H270.027C268.961 50.4484 267.147 52.8804 264.587 54.6724C262.07 56.4642 258.891 57.3599 255.051 57.3599C251.595 57.3598 248.565 56.6347 245.963 55.1841C243.403 53.7335 241.398 51.7283 239.947 49.1685C238.539 46.6085 237.835 43.6643 237.835 40.3364C237.835 37.0084 238.539 34.0852 239.947 31.5679C241.398 29.0082 243.403 27.0246 245.963 25.6167C248.523 24.1661 251.51 23.44 254.923 23.4399ZM254.795 29.52C252.064 29.5201 249.889 30.4592 248.268 32.3364C247.215 33.588 246.516 35.2096 246.165 37.2007H262.729C262.527 34.8849 261.846 33.0921 260.684 31.8237C259.276 30.2878 257.312 29.52 254.795 29.52Z" fill="white"/>
<path fill-rule="evenodd" clip-rule="evenodd" d="M282.462 29.5386C283.159 27.9272 284.268 26.5983 285.79 25.5522C287.881 24.1443 290.462 23.4399 293.534 23.4399C296.435 23.44 298.953 24.1443 301.086 25.5522C303.262 26.9176 304.947 28.8592 306.142 31.3765C307.336 33.8937 307.934 36.8588 307.934 40.272C307.934 43.728 307.315 46.7364 306.078 49.2964C304.841 51.8564 303.112 53.8405 300.894 55.2485C298.675 56.6564 296.051 57.3599 293.021 57.3599C289.907 57.3598 287.347 56.6347 285.342 55.1841C283.931 54.1108 282.909 52.7502 282.27 51.104V56.7202H274.397V10.6401H282.462V29.5386ZM290.91 30.0317C288.35 30.0317 286.281 30.95 284.702 32.7847C283.124 34.5766 282.334 37.1147 282.334 40.3999C282.334 43.6852 283.123 46.2241 284.702 48.0161C286.281 49.808 288.371 50.7046 290.974 50.7046C293.576 50.7046 295.646 49.8081 297.182 48.0161C298.718 46.1815 299.485 43.6216 299.485 40.3364C299.485 37.0512 298.697 34.5122 297.118 32.7202C295.582 30.9283 293.513 30.0318 290.91 30.0317Z" fill="white"/>
<path fill-rule="evenodd" clip-rule="evenodd" d="M326.873 23.4399C330.372 23.4399 333.423 24.166 336.025 25.6167C338.628 27.0247 340.655 28.9872 342.105 31.5044C343.556 34.0216 344.281 36.9442 344.281 40.272C344.281 43.6 343.534 46.5658 342.041 49.1685C340.59 51.7283 338.564 53.7335 335.961 55.1841C333.358 56.6347 330.329 57.3599 326.873 57.3599C323.417 57.3598 320.367 56.6346 317.722 55.1841C315.119 53.7335 313.092 51.7283 311.642 49.1685C310.191 46.5658 309.465 43.6 309.465 40.272C309.465 36.9441 310.191 34.0217 311.642 31.5044C313.092 28.9871 315.119 27.0247 317.722 25.6167C320.367 24.1661 323.417 23.44 326.873 23.4399ZM326.873 29.9038C324.271 29.9038 322.116 30.8213 320.409 32.6558C318.703 34.4904 317.85 37.0085 317.85 40.2085C317.85 42.3842 318.233 44.2826 319.001 45.9038C319.812 47.4825 320.879 48.7207 322.201 49.6167C323.566 50.4699 325.124 50.896 326.873 50.896C328.58 50.896 330.116 50.47 331.481 49.6167C332.847 48.7207 333.914 47.4825 334.682 45.9038C335.449 44.2827 335.833 42.3842 335.833 40.2085C335.833 37.0085 334.98 34.4904 333.273 32.6558C331.609 30.8212 329.476 29.9038 326.873 29.9038Z" fill="white"/>
<path fill-rule="evenodd" clip-rule="evenodd" d="M361.416 23.4399C365.896 23.44 369.288 24.4643 371.592 26.5122C373.896 28.5175 375.048 31.4834 375.048 35.4087V50.1919C375.048 51.2159 375.111 52.2619 375.239 53.3286C375.41 54.3952 375.645 55.5257 375.943 56.7202H367.88C367.667 55.8669 367.496 54.9278 367.368 53.9038C367.312 53.2322 367.276 52.4689 367.257 51.6138C366.399 53.2752 365.2 54.5939 363.655 55.5679C361.735 56.7625 359.368 57.3599 356.552 57.3599C353.266 57.3599 350.642 56.5496 348.68 54.9282C346.76 53.2642 345.8 51.0453 345.8 48.272C345.8 45.2855 346.888 42.9177 349.063 41.1685C351.239 39.4192 354.311 38.2453 358.279 37.6479L366.983 36.3335V34.7046C366.983 32.9979 366.493 31.7171 365.512 30.8638C364.573 29.968 363.122 29.5201 361.16 29.52C359.24 29.52 357.704 29.8826 356.552 30.6079C355.442 31.2906 354.76 32.294 354.504 33.6167H346.76C347.101 30.5875 348.552 28.1336 351.111 26.2563C353.671 24.379 357.107 23.4399 361.416 23.4399ZM359.624 42.5767C357.704 42.8753 356.253 43.4083 355.271 44.1763C354.333 44.9443 353.863 46.0112 353.863 47.3765C353.863 48.6137 354.312 49.5737 355.208 50.2563C356.104 50.8962 357.341 51.2163 358.92 51.2163C361.224 51.2163 363.144 50.6398 364.68 49.4878C366.216 48.3358 366.983 46.9281 366.983 45.2642V41.4556L359.624 42.5767Z" fill="white"/>
<path fill-rule="evenodd" clip-rule="evenodd" d="M433.451 56.7202H425.579V51.3521C424.862 52.897 423.733 54.1969 422.187 55.2485C420.053 56.6564 417.514 57.3599 414.57 57.3599C411.584 57.3598 408.981 56.6773 406.763 55.312C404.587 53.9041 402.902 51.9415 401.707 49.4243C400.512 46.907 399.915 43.9412 399.915 40.5278C399.915 37.0721 400.533 34.0643 401.771 31.5044C403.008 28.9444 404.736 26.9602 406.955 25.5522C409.216 24.1443 411.841 23.4399 414.827 23.4399C417.899 23.44 420.437 24.187 422.442 25.6802C423.709 26.5964 424.668 27.7429 425.322 29.1187V10.6401H433.451V56.7202ZM416.875 30.0962C414.315 30.0962 412.246 31.0136 410.667 32.8481C409.088 34.6401 408.299 37.179 408.299 40.4644C408.299 43.7496 409.088 46.2886 410.667 48.0806C412.246 49.8723 414.336 50.768 416.938 50.7681C419.541 50.7681 421.611 49.8723 423.146 48.0806C424.725 46.2459 425.515 43.6852 425.515 40.3999C425.515 37.1148 424.725 34.5766 423.146 32.7847C421.568 30.9927 419.478 30.0963 416.875 30.0962Z" fill="white"/>
<path d="M122.424 10.6401V17.2319H99.3203V31.6323H120.889V38.2241H99.3203V56.7202H91V10.6401H122.424Z" fill="white"/>
<path d="M236.434 23.4399C237.329 23.44 237.97 23.5252 238.354 23.6958V31.312C238.14 31.2267 237.841 31.1841 237.457 31.1841C237.073 31.1414 236.603 31.1206 236.049 31.1206C232.934 31.1207 230.609 31.8032 229.073 33.1685C227.537 34.5337 226.77 36.7094 226.77 39.6958V56.7202H218.705V24.0806H226.577V30.0854C227.356 28.212 228.443 26.7222 229.841 25.6167C231.675 24.166 233.874 23.4399 236.434 23.4399Z" fill="white"/>
<path d="M398.383 23.4399C399.279 23.4399 399.92 23.5251 400.304 23.6958V31.312C400.09 31.2267 399.791 31.1841 399.407 31.1841C399.023 31.1414 398.554 31.1206 397.999 31.1206C394.884 31.1206 392.559 31.8032 391.023 33.1685C389.488 34.5337 388.719 36.7093 388.719 39.6958V56.7202H380.655V24.0806H388.527V30.0854C389.306 28.212 390.393 26.7222 391.791 25.6167C393.626 24.1661 395.823 23.44 398.383 23.4399Z" fill="white"/>
</svg>
